HIERARCHY
ROOT pelvis
{
	OFFSET 0.000000 0.000000 0.000000
	CHANNELS 6 Xposition Yposition Zposition Zrotation Xrotation Yrotation
	JOINT lfemur
	{
		OFFSET 11.446000 0.000000 0.000000
		CHANNELS 3 Zrotation Xrotation Yrotation
		JOINT ltibia
		{
			OFFSET 0.000000 -42.030400 0.000000
			CHANNELS 3 Zrotation Xrotation Yrotation
			JOINT lfoot
			{
				OFFSET 0.000000 -39.930200 0.000000
				CHANNELS 3 Zrotation Xrotation Yrotation
				JOINT ltoes
				{
					OFFSET 0.000000 0.000000 11.775800
					CHANNELS 3 Zrotation Xrotation Yrotation
					End Site
					{
					    OFFSET 0.000000 0.000000 5.000000
					}
				}
			}
		}
	}
	JOINT rfemur
	{
		OFFSET -11.446000 0.000000 0.000000
		CHANNELS 3 Zrotation Xrotation Yrotation
		JOINT rtibia
		{
			OFFSET 0.000000 -42.030400 0.000000
			CHANNELS 3 Zrotation Xrotation Yrotation
			JOINT rfoot
			{
				OFFSET 0.000000 -39.930200 0.000000
				CHANNELS 3 Zrotation Xrotation Yrotation
				JOINT rtoes
				{
					OFFSET 0.000000 0.000000 11.775800
					CHANNELS 3 Zrotation Xrotation Yrotation
					End Site
					{
					    OFFSET 0.000000 0.000000 5.000000
					}
				}
			}
		}
	}
	JOINT thorax
	{
		OFFSET 0.000000 11.255600 -5.000000
		CHANNELS 3 Zrotation Xrotation Yrotation
		JOINT head
		{
			OFFSET 0.000000 43.799300 0.000000
			CHANNELS 3 Zrotation Xrotation Yrotation
			End Site
			{
			    OFFSET 0.000000 5.000000 0.000000
			}
		}
		JOINT lclavicle
		{
			OFFSET 0.000000 39.863000 0.000000
			CHANNELS 3 Zrotation Xrotation Yrotation
			JOINT lhumerus
			{
				OFFSET 17.380600 4.958300 0.000000
				CHANNELS 3 Zrotation Xrotation Yrotation
				JOINT lradius
				{
					OFFSET 0.000000 -27.561300 0.000000
					CHANNELS 3 Zrotation Xrotation Yrotation
					JOINT lhand
					{
						OFFSET 0.000000 -26.933000 0.000000
						CHANNELS 3 Zrotation Xrotation Yrotation
						End Site
						{
						    OFFSET 0.000000 -5.000000 0.000000
						}
					}
				}
			}
		}
		JOINT rclavicle
		{
			OFFSET 0.000000 39.863000 0.000000
			CHANNELS 3 Zrotation Xrotation Yrotation
			JOINT rhumerus
			{
				OFFSET -17.380600 4.958300 0.000000
				CHANNELS 3 Zrotation Xrotation Yrotation
				JOINT rradius
				{
					OFFSET 0.000000 -27.561300 0.000000
					CHANNELS 3 Zrotation Xrotation Yrotation
					JOINT rhand
					{
						OFFSET 0.000000 -26.933000 0.000000
						CHANNELS 3 Zrotation Xrotation Yrotation
						End Site
						{
						    OFFSET 0.000000 -5.000000 0.000000
						}
					}
				}
			}
		}
	}
}
MOTION
Frames: 12
Frame Time:	0.0333333
-211.061 88.4161 2.08252 0.771333 -0.0395657 88.1488 -1.16838 -7.2452 0.343509 1.00315 22.7085 10.7915 2.25599 -1.58081 0.124792 3.45882e-015 -5 3.1927e-015 4.5574 0.262854 -0.159265 -0.539768 14.6758 -12.4878 -4.62399 -0.692025 -0.306517 8.94531e-016 -5 -0 -3.75277 1.96952 -2.33282 6.02274 15.0962 -2.71234 7.95139e-016 7.25564e-015 7.95139e-016 13.4075 -12.0942 63.9474 3.87748 -0.0955604 -107.102 7.10231 -9.22451 -9.02953 7.95139e-016 7.25564e-015 7.95139e-016 -13.2546 -2.16494 -31.8869 13.4109 -2.37529 63.381 -0.724541 -1.07782 9.8973 
-211.229 88.0788 2.52505 0.802568 -0.701457 88.896 -0.213052 -10.8701 0.0516194 0.827861 29.4457 10.1642 0.381556 -2.12209 0.0631446 2.62394e-015 -5 1.59635e-015 5.39012 -0.339734 -0.0184758 -0.299581 15.9253 -13.53 -4.81904 -1.52575 -0.350644 -2.66368e-015 -5 -3.1927e-015 -3.21998 3.05467 -2.49839 7.00061 13.7931 -3.10293 -7.95139e-016 -7.45443e-016 -7.95139e-016 14.1075 -12.8034 63.3155 3.46976 -0.129324 -106.94 7.49256 -9.93703 -8.93399 -7.95139e-016 -7.45443e-016 -7.95139e-016 -12.8115 -2.64688 -32.408 13.3223 -2.30227 63.3725 -0.714424 -0.829455 9.89312 
-211.383 87.7085 2.85149 1.03004 -1.01684 89.9188 0.578509 -14.9441 -0.193928 0.885988 37.0833 9.36751 -1.77774 -1.41474 -0.0133199 -1.0734e-015 -5 -3.1927e-015 6.24286 -0.926156 0.122615 -0.170665 17.5436 -14.7563 -5.07222 -2.58168 -0.408639 -2.98177e-015 -5 -0 -2.87251 4.79592 -2.5384 8.62917 12.3349 -3.50796 -5.20703e-032 -3.75206e-015 -7.95139e-016 15.3068 -14.0379 62.7683 2.77856 -0.128604 -105.357 6.14827 -9.74725 -9.12007 -5.20703e-032 -3.75206e-015 -7.95139e-016 -12.1701 -3.68177 -33.8554 13.147 -1.8649 63.9415 -0.716702 -1.07707 9.89132 
-211.322 87.3653 3.12521 1.51032 -1.26629 90.3155 0.936245 -18.5841 -0.219241 0.929275 44.2826 8.79141 -0.986226 0.765988 -0.0094663 -1.53062e-015 -5 -1.59635e-015 6.64739 -1.23684 -0.0453319 -0.0985722 19.3271 -15.1601 -5.22702 -3.75448 -0.472511 -3.97569e-016 -5 -0 -2.35631 5.79365 -2.2992 9.08094 11.8883 -3.54638 7.95139e-016 3.926e-015 3.97569e-016 16.1637 -14.315 62.437 2.37462 0.0291324 -104.74 5.03614 -9.44083 -9.28637 7.95139e-016 3.926e-015 3.97569e-016 -11.8916 -3.78212 -33.8767 12.9151 -1.75339 64.0657 -0.829141 -1.11262 9.88691 
-211.078 87.1095 3.3471 2.03746 -1.41105 90.7423 0.847596 -21.9386 -0.998671 1.02747 50.3995 8.51121 1.95707 2.19026 0.00778324 2.64385e-015 -5 -1.59635e-015 6.97881 -1.03477 -0.259055 -0.000456513 20.3799 -15.5601 -5.22987 -4.55073 -0.512175 2.84264e-015 -5 -1.59635e-015 -1.60821 6.35981 -2.08434 9.0456 11.6676 -3.68565 -7.95139e-016 -5.65294e-015 -1.98785e-016 16.4319 -13.9463 61.9415 1.98418 -0.149875 -104.444 6.13461 -9.54473 -9.13224 -7.95139e-016 -5.65294e-015 -1.98785e-016 -12.07 -3.46028 -33.1459 13.0561 -1.82669 63.6138 -0.9137 -0.692453 9.88272 
-210.713 86.9725 3.54479 2.25931 -1.49012 91.1098 0.402149 -24.6478 -2.12678 1.0568 53.2728 8.32951 1.97966 2.23839 0.00940608 5.82441e-015 -5 -1.59635e-015 7.15373 -0.672297 -0.452005 0.123846 20.6475 -15.8 -5.25078 -5.01186 -0.536522 -3.71726e-015 -5 -1.59635e-015 -1.04649 6.31425 -1.8442 8.72419 12.2009 -3.68943 -3.97569e-016 1.83255e-015 -1.98785e-016 16.811 -13.0906 61.6125 1.64739 -0.0109339 -103.489 6.18796 -9.40237 -9.1392 -3.97569e-016 1.83255e-015 -1.98785e-016 -12.35 -3.11306 -33.4114 12.8193 -1.22792 64.2215 -1.02477 -0.537064 9.8823 
-210.118 86.9337 3.68497 2.53659 -1.27527 91.357 -0.340908 -26.688 -3.2324 1.03754 53.7398 7.70583 2.34782 1.62689 0.0281341 5.61571e-015 -5 -3.99088e-015 7.05567 0.258306 -0.782938 0.150669 20.1855 -15.8673 -5.23816 -5.27767 -0.548783 2.0475e-015 -5 -1.59635e-015 -1.15106 6.94695 -1.7646 8.64442 12.0856 -3.46111 -3.97569e-016 -6.70898e-016 -9.93923e-017 17.8035 -12.6351 62.6529 1.69405 -0.134655 -103.274 6.21679 -9.89766 -9.10302 -3.97569e-016 -6.70898e-016 -9.93923e-017 -12.1382 -3.33733 -33.7711 12.625 -0.967831 64.9336 -0.688966 -0.991513 9.8948 
-209.421 87.0284 3.77335 2.59797 -0.911531 90.7757 -0.800821 -28.1789 -3.47001 1.00691 51.9488 7.97094 1.93307 0.747722 0.0509394 5.49641e-015 -5 -7.98176e-016 6.66389 1.15742 -1.00696 0.122569 19.4394 -15.0172 -5.2304 -5.26944 -0.547711 -3.75699e-015 -5 -3.1927e-015 -1.38663 7.50696 -1.36929 7.88342 12.4289 -2.28011 -3.97569e-016 -4.89507e-015 -3.97569e-016 18.5361 -11.9325 64.1497 1.55988 -0.12906 -103.323 7.31871 -9.5163 -8.98023 -3.97569e-016 -4.89507e-015 -3.97569e-016 -12.1451 -3.69272 -32.941 12.776 -1.4582 64.7133 -0.149671 -0.0683815 9.92673 
-208.64 87.1062 3.84038 2.63569 -0.494066 90.3271 -1.44364 -29.3438 -3.9106 1.00027 48.7408 9.05356 2.07442 0.259535 0.0667655 -2.78262e-016 -5 -3.1927e-015 6.12646 1.98793 -1.35812 0.124515 18.8925 -14.2138 -5.38382 -5.39355 -0.563474 -1.19271e-015 -5 -0 -1.4979 7.37568 -1.00216 6.68477 12.9352 -1.35286 3.97569e-016 2.4289e-015 1.98785e-016 18.7363 -10.3414 64.7649 1.47932 -0.00374276 -102.837 7.46472 -9.31026 -8.98113 3.97569e-016 2.4289e-015 1.98785e-016 -12.4341 -3.37991 -32.3385 12.7727 -1.387 64.715 -0.597797 -0.0192734 9.90586 
-207.663 86.9638 3.85879 2.9873 -0.312256 90 -1.58316 -29.9441 -4.11144 1.00847 44.544 10.2195 2.26923 -0.250855 0.0855731 -7.95139e-016 -5 -0 5.91819 2.9259 -1.76811 0.130409 19.1464 -13.695 -5.04859 -6.1783 -0.580163 -2.62394e-015 -5 -1.59635e-015 -1.05948 7.66441 -0.816893 5.46491 13.2607 -0.637806 -6.35792e-033 1.83255e-015 1.98785e-016 18.8777 -8.83525 65.7485 1.47586 -0.084753 -102.13 7.17155 -9.53878 -8.99981 -6.35792e-033 1.83255e-015 1.98785e-016 -12.6735 -3.43571 -31.8261 12.7936 -1.55562 64.7302 -0.413083 -0.124163 9.91326 
-206.572 86.8953 3.95497 3.30578 -0.256279 89.7223 -1.66628 -30.2912 -4.04466 0.969815 40.0765 10.8744 2.17167 -0.148473 0.0860308 9.3427e-016 -5 1.59635e-015 5.63077 4.18654 -2.06035 0.0168597 18.7668 -13.1317 -4.95715 -6.67679 -0.598377 -6.16178e-016 -5 -4.78906e-015 -1.07359 7.77797 -0.642152 4.13186 13.715 0.550092 0 3.95395e-015 -0 19.188 -7.48773 67.2852 2.04936 -0.0111243 -102.065 7.38815 -9.77512 -8.96002 0 3.95395e-015 -0 -12.9851 -3.39575 -30.9683 13.0588 -1.65097 64.6147 -0.384596 -0.201545 9.91431 
-205.289 86.8488 3.86176 3.80087 0.334479 89.1348 -1.81168 -30.0769 -4.03778 0.942126 35.3483 11.0817 2.25182 0.375731 0.0825573 -1.39131e-016 -5 -1.59635e-015 5.13685 5.73325 -2.53733 -0.133283 18.4056 -12.0638 -4.8271 -7.18259 -0.612204 -3.76695e-015 -5 -1.59635e-015 -1.13626 7.82106 -0.468638 2.61055 14.3182 1.76246 9.93923e-017 1.25172e-015 5.96354e-016 19.0937 -5.72261 68.658 2.69213 -0.132622 -101.989 6.49469 -8.70979 -9.13501 9.93923e-017 1.25172e-015 5.96354e-016 -13.4857 -3.19707 -29.7994 13.459 -1.97125 64.2962 -0.189723 0.120843 9.92396 
